<?xml version="1.0" encoding="UTF-8" standalone="no"?>
<!DOCTYPE svg PUBLIC "-//W3C//DTD SVG 1.1//EN"
 "http://www.w3.org/Graphics/SVG/1.1/DTD/svg11.dtd">
<!-- Generated by graphviz version 2.47.0 (20210316.0004)
 -->
<!-- Title: dependencies Pages: 1 -->
<svg width="1626pt" height="284pt"
 viewBox="0.00 0.00 1626.00 284.00" xmlns="http://www.w3.org/2000/svg" xmlns:xlink="http://www.w3.org/1999/xlink">
<g id="graph0" class="graph" transform="scale(1 1) rotate(0) translate(4 280)">
<title>dependencies</title>
<polygon fill="white" stroke="transparent" points="-4,4 -4,-280 1622,-280 1622,4 -4,4"/>
<text text-anchor="start" x="788.01" y="-42.4" font-family="sans-serif" font-weight="bold" font-size="14.00">Legend</text>
<polygon fill="#ffffb3" stroke="transparent" points="575,-10 575,-30 595,-30 595,-10 575,-10"/>
<text text-anchor="start" x="598.63" y="-15.4" font-family="sans-serif" font-size="14.00"> &#160;Declarations</text>
<polygon fill="#8dd3c7" stroke="transparent" points="688,-10 688,-30 708,-30 708,-10 688,-10"/>
<text text-anchor="start" x="711.73" y="-15.4" font-family="sans-serif" font-size="14.00"> &#160;Module</text>
<polygon fill="#80b1d3" stroke="transparent" points="774,-10 774,-30 794,-30 794,-10 774,-10"/>
<text text-anchor="start" x="797.78" y="-15.4" font-family="sans-serif" font-size="14.00"> &#160;Bootstrap</text>
<polygon fill="#fdb462" stroke="transparent" points="871,-10 871,-30 891,-30 891,-10 871,-10"/>
<text text-anchor="start" x="894.67" y="-15.4" font-family="sans-serif" font-size="14.00"> &#160;Providers</text>
<polygon fill="#fb8072" stroke="transparent" points="967,-10 967,-30 987,-30 987,-10 967,-10"/>
<text text-anchor="start" x="990.73" y="-15.4" font-family="sans-serif" font-size="14.00"> &#160;Exports</text>
<g id="clust1" class="cluster">
<title>cluster_AppModule</title>
<polygon fill="none" stroke="black" stroke-dasharray="1,5" points="8,-70 8,-268 1610,-268 1610,-70 8,-70"/>
</g>
<g id="clust15" class="cluster">
<title>cluster_AppModule_bootstrap</title>
<polygon fill="none" stroke="black" points="705,-208 705,-260 829,-260 829,-208 705,-208"/>
</g>
<g id="clust13" class="cluster">
<title>cluster_AppModule_imports</title>
<polygon fill="none" stroke="black" points="1458,-78 1458,-130 1602,-130 1602,-78 1458,-78"/>
</g>
<g id="clust2" class="cluster">
<title>cluster_AppModule_declarations</title>
<polygon fill="none" stroke="black" points="16,-78 16,-130 1450,-130 1450,-78 16,-78"/>
</g>
<!-- AlojamientosComponent -->
<g id="node1" class="node">
<title>AlojamientosComponent</title>
<polygon fill="#ffffb3" stroke="black" points="1442.27,-122 1285.73,-122 1285.73,-86 1442.27,-86 1442.27,-122"/>
<text text-anchor="middle" x="1364" y="-99.8" font-family="Times,serif" font-size="14.00">AlojamientosComponent</text>
</g>
<!-- AppModule -->
<g id="node11" class="node">
<title>AppModule</title>
<polygon fill="#8dd3c7" stroke="black" points="808.66,-187 805.66,-191 784.66,-191 781.66,-187 725.34,-187 725.34,-151 808.66,-151 808.66,-187"/>
<text text-anchor="middle" x="767" y="-164.8" font-family="Times,serif" font-size="14.00">AppModule</text>
</g>
<!-- AlojamientosComponent&#45;&gt;AppModule -->
<g id="edge1" class="edge">
<title>AlojamientosComponent&#45;&gt;AppModule</title>
<path fill="none" stroke="black" d="M1364,-122.28C1364,-143.32 1364,-175 1364,-175 1364,-175 818.98,-175 818.98,-175"/>
<polygon fill="black" stroke="black" points="818.98,-171.5 808.98,-175 818.98,-178.5 818.98,-171.5"/>
</g>
<!-- AppComponent -->
<g id="node2" class="node">
<title>AppComponent</title>
<polygon fill="#ffffb3" stroke="black" points="1267.94,-122 1162.06,-122 1162.06,-86 1267.94,-86 1267.94,-122"/>
<text text-anchor="middle" x="1215" y="-99.8" font-family="Times,serif" font-size="14.00">AppComponent</text>
</g>
<!-- AppComponent&#45;&gt;AppModule -->
<g id="edge2" class="edge">
<title>AppComponent&#45;&gt;AppModule</title>
<path fill="none" stroke="black" d="M1215,-122.11C1215,-141.34 1215,-169 1215,-169 1215,-169 818.74,-169 818.74,-169"/>
<polygon fill="black" stroke="black" points="818.74,-165.5 808.74,-169 818.74,-172.5 818.74,-165.5"/>
</g>
<!-- FooterComponent -->
<g id="node3" class="node">
<title>FooterComponent</title>
<polygon fill="#ffffb3" stroke="black" points="1143.88,-122 1026.12,-122 1026.12,-86 1143.88,-86 1143.88,-122"/>
<text text-anchor="middle" x="1085" y="-99.8" font-family="Times,serif" font-size="14.00">FooterComponent</text>
</g>
<!-- FooterComponent&#45;&gt;AppModule -->
<g id="edge3" class="edge">
<title>FooterComponent&#45;&gt;AppModule</title>
<path fill="none" stroke="black" d="M1085,-122.02C1085,-139.37 1085,-163 1085,-163 1085,-163 818.9,-163 818.9,-163"/>
<polygon fill="black" stroke="black" points="818.9,-159.5 808.9,-163 818.9,-166.5 818.9,-159.5"/>
</g>
<!-- LocalizacionesComponent -->
<g id="node4" class="node">
<title>LocalizacionesComponent</title>
<polygon fill="#ffffb3" stroke="black" points="1007.79,-122 842.21,-122 842.21,-86 1007.79,-86 1007.79,-122"/>
<text text-anchor="middle" x="925" y="-99.8" font-family="Times,serif" font-size="14.00">LocalizacionesComponent</text>
</g>
<!-- LocalizacionesComponent&#45;&gt;AppModule -->
<g id="edge4" class="edge">
<title>LocalizacionesComponent&#45;&gt;AppModule</title>
<path fill="none" stroke="black" d="M925,-122.24C925,-137.57 925,-157 925,-157 925,-157 818.93,-157 818.93,-157"/>
<polygon fill="black" stroke="black" points="818.93,-153.5 808.93,-157 818.93,-160.5 818.93,-153.5"/>
</g>
<!-- LoginComponent -->
<g id="node5" class="node">
<title>LoginComponent</title>
<polygon fill="#ffffb3" stroke="black" points="824.28,-122 709.72,-122 709.72,-86 824.28,-86 824.28,-122"/>
<text text-anchor="middle" x="767" y="-99.8" font-family="Times,serif" font-size="14.00">LoginComponent</text>
</g>
<!-- LoginComponent&#45;&gt;AppModule -->
<g id="edge5" class="edge">
<title>LoginComponent&#45;&gt;AppModule</title>
<path fill="none" stroke="black" d="M767,-122.11C767,-122.11 767,-140.99 767,-140.99"/>
<polygon fill="black" stroke="black" points="763.5,-140.99 767,-150.99 770.5,-140.99 763.5,-140.99"/>
</g>
<!-- MenuComponent -->
<g id="node6" class="node">
<title>MenuComponent</title>
<polygon fill="#ffffb3" stroke="black" points="691.99,-122 578.01,-122 578.01,-86 691.99,-86 691.99,-122"/>
<text text-anchor="middle" x="635" y="-99.8" font-family="Times,serif" font-size="14.00">MenuComponent</text>
</g>
<!-- MenuComponent&#45;&gt;AppModule -->
<g id="edge6" class="edge">
<title>MenuComponent&#45;&gt;AppModule</title>
<path fill="none" stroke="black" d="M635,-122.24C635,-137.57 635,-157 635,-157 635,-157 715.23,-157 715.23,-157"/>
<polygon fill="black" stroke="black" points="715.23,-160.5 725.23,-157 715.23,-153.5 715.23,-160.5"/>
</g>
<!-- NavbarComponent -->
<g id="node7" class="node">
<title>NavbarComponent</title>
<polygon fill="#ffffb3" stroke="black" points="560.03,-122 437.97,-122 437.97,-86 560.03,-86 560.03,-122"/>
<text text-anchor="middle" x="499" y="-99.8" font-family="Times,serif" font-size="14.00">NavbarComponent</text>
</g>
<!-- NavbarComponent&#45;&gt;AppModule -->
<g id="edge7" class="edge">
<title>NavbarComponent&#45;&gt;AppModule</title>
<path fill="none" stroke="black" d="M499,-122.02C499,-139.37 499,-163 499,-163 499,-163 715.12,-163 715.12,-163"/>
<polygon fill="black" stroke="black" points="715.13,-166.5 725.12,-163 715.12,-159.5 715.13,-166.5"/>
</g>
<!-- NoImagePipePipe -->
<g id="node8" class="node">
<title>NoImagePipePipe</title>
<polygon fill="#ffffb3" stroke="black" points="419.86,-122 302.14,-122 302.14,-86 419.86,-86 419.86,-122"/>
<text text-anchor="middle" x="361" y="-99.8" font-family="Times,serif" font-size="14.00">NoImagePipePipe</text>
</g>
<!-- NoImagePipePipe&#45;&gt;AppModule -->
<g id="edge8" class="edge">
<title>NoImagePipePipe&#45;&gt;AppModule</title>
<path fill="none" stroke="black" d="M361,-122.11C361,-141.34 361,-169 361,-169 361,-169 715.08,-169 715.08,-169"/>
<polygon fill="black" stroke="black" points="715.08,-172.5 725.08,-169 715.08,-165.5 715.08,-172.5"/>
</g>
<!-- RegistroComponent -->
<g id="node9" class="node">
<title>RegistroComponent</title>
<polygon fill="#ffffb3" stroke="black" points="284.27,-122 155.73,-122 155.73,-86 284.27,-86 284.27,-122"/>
<text text-anchor="middle" x="220" y="-99.8" font-family="Times,serif" font-size="14.00">RegistroComponent</text>
</g>
<!-- RegistroComponent&#45;&gt;AppModule -->
<g id="edge9" class="edge">
<title>RegistroComponent&#45;&gt;AppModule</title>
<path fill="none" stroke="black" d="M220,-122.28C220,-143.32 220,-175 220,-175 220,-175 714.99,-175 714.99,-175"/>
<polygon fill="black" stroke="black" points="714.99,-178.5 724.99,-175 714.99,-171.5 714.99,-178.5"/>
</g>
<!-- RutasComponent -->
<g id="node10" class="node">
<title>RutasComponent</title>
<polygon fill="#ffffb3" stroke="black" points="137.72,-122 24.28,-122 24.28,-86 137.72,-86 137.72,-122"/>
<text text-anchor="middle" x="81" y="-99.8" font-family="Times,serif" font-size="14.00">RutasComponent</text>
</g>
<!-- RutasComponent&#45;&gt;AppModule -->
<g id="edge10" class="edge">
<title>RutasComponent&#45;&gt;AppModule</title>
<path fill="none" stroke="black" d="M81,-122.25C81,-145.02 81,-181 81,-181 81,-181 715.12,-181 715.12,-181"/>
<polygon fill="black" stroke="black" points="715.12,-184.5 725.12,-181 715.12,-177.5 715.12,-184.5"/>
</g>
<!-- AppComponent  -->
<g id="node13" class="node">
<title>AppComponent </title>
<polygon fill="#80b1d3" stroke="black" points="821.44,-252 712.56,-252 712.56,-216 821.44,-216 821.44,-252"/>
<text text-anchor="middle" x="767" y="-229.8" font-family="Times,serif" font-size="14.00">AppComponent </text>
</g>
<!-- AppModule&#45;&gt;AppComponent  -->
<g id="edge12" class="edge">
<title>AppModule&#45;&gt;AppComponent </title>
<path fill="none" stroke="black" stroke-dasharray="1,5" d="M767,-187.11C767,-187.11 767,-205.99 767,-205.99"/>
<polygon fill="black" stroke="black" points="763.5,-205.99 767,-215.99 770.5,-205.99 763.5,-205.99"/>
</g>
<!-- AppRoutingModule -->
<g id="node12" class="node">
<title>AppRoutingModule</title>
<polygon fill="#8dd3c7" stroke="black" points="1594.27,-122 1591.27,-126 1570.27,-126 1567.27,-122 1465.73,-122 1465.73,-86 1594.27,-86 1594.27,-122"/>
<text text-anchor="middle" x="1530" y="-99.8" font-family="Times,serif" font-size="14.00">AppRoutingModule</text>
</g>
<!-- AppRoutingModule&#45;&gt;AppModule -->
<g id="edge11" class="edge">
<title>AppRoutingModule&#45;&gt;AppModule</title>
<path fill="none" stroke="black" d="M1530,-122.25C1530,-145.02 1530,-181 1530,-181 1530,-181 818.84,-181 818.84,-181"/>
<polygon fill="black" stroke="black" points="818.84,-177.5 808.84,-181 818.84,-184.5 818.84,-177.5"/>
</g>
</g>
</svg>
