<?xml version="1.0" encoding="UTF-8" standalone="no"?>
<!DOCTYPE svg PUBLIC "-//W3C//DTD SVG 1.1//EN"
 "http://www.w3.org/Graphics/SVG/1.1/DTD/svg11.dtd">
<!-- Generated by graphviz version 2.47.0 (20210316.0004)
 -->
<!-- Title: dependencies Pages: 1 -->
<svg width="2729pt" height="284pt"
 viewBox="0.00 0.00 2729.00 284.00" xmlns="http://www.w3.org/2000/svg" xmlns:xlink="http://www.w3.org/1999/xlink">
<g id="graph0" class="graph" transform="scale(1 1) rotate(0) translate(4 280)">
<title>dependencies</title>
<polygon fill="white" stroke="transparent" points="-4,4 -4,-280 2725,-280 2725,4 -4,4"/>
<text text-anchor="start" x="1339.51" y="-42.4" font-family="sans-serif" font-weight="bold" font-size="14.00">Legend</text>
<polygon fill="#ffffb3" stroke="transparent" points="1126.5,-10 1126.5,-30 1146.5,-30 1146.5,-10 1126.5,-10"/>
<text text-anchor="start" x="1150.13" y="-15.4" font-family="sans-serif" font-size="14.00"> &#160;Declarations</text>
<polygon fill="#8dd3c7" stroke="transparent" points="1239.5,-10 1239.5,-30 1259.5,-30 1259.5,-10 1239.5,-10"/>
<text text-anchor="start" x="1263.23" y="-15.4" font-family="sans-serif" font-size="14.00"> &#160;Module</text>
<polygon fill="#80b1d3" stroke="transparent" points="1325.5,-10 1325.5,-30 1345.5,-30 1345.5,-10 1325.5,-10"/>
<text text-anchor="start" x="1349.28" y="-15.4" font-family="sans-serif" font-size="14.00"> &#160;Bootstrap</text>
<polygon fill="#fdb462" stroke="transparent" points="1422.5,-10 1422.5,-30 1442.5,-30 1442.5,-10 1422.5,-10"/>
<text text-anchor="start" x="1446.17" y="-15.4" font-family="sans-serif" font-size="14.00"> &#160;Providers</text>
<polygon fill="#fb8072" stroke="transparent" points="1518.5,-10 1518.5,-30 1538.5,-30 1538.5,-10 1518.5,-10"/>
<text text-anchor="start" x="1542.23" y="-15.4" font-family="sans-serif" font-size="14.00"> &#160;Exports</text>
<g id="clust1" class="cluster">
<title>cluster_AppModule</title>
<polygon fill="none" stroke="black" stroke-dasharray="1,5" points="8,-70 8,-268 2713,-268 2713,-70 8,-70"/>
</g>
<g id="clust20" class="cluster">
<title>cluster_AppModule_imports</title>
<polygon fill="none" stroke="black" points="2561,-78 2561,-130 2705,-130 2705,-78 2561,-78"/>
</g>
<g id="clust22" class="cluster">
<title>cluster_AppModule_bootstrap</title>
<polygon fill="none" stroke="black" points="1242,-208 1242,-260 1366,-260 1366,-208 1242,-208"/>
</g>
<g id="clust2" class="cluster">
<title>cluster_AppModule_declarations</title>
<polygon fill="none" stroke="black" points="16,-78 16,-130 2553,-130 2553,-78 16,-78"/>
</g>
<!-- AlojamientosComponent -->
<g id="node1" class="node">
<title>AlojamientosComponent</title>
<polygon fill="#ffffb3" stroke="black" points="2545.27,-122 2388.73,-122 2388.73,-86 2545.27,-86 2545.27,-122"/>
<text text-anchor="middle" x="2467" y="-99.8" font-family="Times,serif" font-size="14.00">AlojamientosComponent</text>
</g>
<!-- AppModule -->
<g id="node18" class="node">
<title>AppModule</title>
<polygon fill="#8dd3c7" stroke="black" points="1345.66,-187 1342.66,-191 1321.66,-191 1318.66,-187 1262.34,-187 1262.34,-151 1345.66,-151 1345.66,-187"/>
<text text-anchor="middle" x="1304" y="-164.8" font-family="Times,serif" font-size="14.00">AppModule</text>
</g>
<!-- AlojamientosComponent&#45;&gt;AppModule -->
<g id="edge1" class="edge">
<title>AlojamientosComponent&#45;&gt;AppModule</title>
<path fill="none" stroke="black" d="M2467,-122.16C2467,-144.35 2467,-179 2467,-179 2467,-179 1355.73,-179 1355.73,-179"/>
<polygon fill="black" stroke="black" points="1355.73,-175.5 1345.73,-179 1355.73,-182.5 1355.73,-175.5"/>
</g>
<!-- AlojamientosListaComponent -->
<g id="node2" class="node">
<title>AlojamientosListaComponent</title>
<polygon fill="#ffffb3" stroke="black" points="2370.26,-122 2185.74,-122 2185.74,-86 2370.26,-86 2370.26,-122"/>
<text text-anchor="middle" x="2278" y="-99.8" font-family="Times,serif" font-size="14.00">AlojamientosListaComponent</text>
</g>
<!-- AlojamientosListaComponent&#45;&gt;AppModule -->
<g id="edge2" class="edge">
<title>AlojamientosListaComponent&#45;&gt;AppModule</title>
<path fill="none" stroke="black" d="M2278,-122.28C2278,-143.32 2278,-175 2278,-175 2278,-175 1355.85,-175 1355.85,-175"/>
<polygon fill="black" stroke="black" points="1355.85,-171.5 1345.85,-175 1355.85,-178.5 1355.85,-171.5"/>
</g>
<!-- AppComponent -->
<g id="node3" class="node">
<title>AppComponent</title>
<polygon fill="#ffffb3" stroke="black" points="2167.94,-122 2062.06,-122 2062.06,-86 2167.94,-86 2167.94,-122"/>
<text text-anchor="middle" x="2115" y="-99.8" font-family="Times,serif" font-size="14.00">AppComponent</text>
</g>
<!-- AppComponent&#45;&gt;AppModule -->
<g id="edge3" class="edge">
<title>AppComponent&#45;&gt;AppModule</title>
<path fill="none" stroke="black" d="M2115,-122.31C2115,-142.15 2115,-171 2115,-171 2115,-171 1355.9,-171 1355.9,-171"/>
<polygon fill="black" stroke="black" points="1355.9,-167.5 1345.9,-171 1355.9,-174.5 1355.9,-167.5"/>
</g>
<!-- ComentariosComponent -->
<g id="node4" class="node">
<title>ComentariosComponent</title>
<polygon fill="#ffffb3" stroke="black" points="2044.38,-122 1891.62,-122 1891.62,-86 2044.38,-86 2044.38,-122"/>
<text text-anchor="middle" x="1968" y="-99.8" font-family="Times,serif" font-size="14.00">ComentariosComponent</text>
</g>
<!-- ComentariosComponent&#45;&gt;AppModule -->
<g id="edge4" class="edge">
<title>ComentariosComponent&#45;&gt;AppModule</title>
<path fill="none" stroke="black" d="M1968,-122.22C1968,-140.83 1968,-167 1968,-167 1968,-167 1355.79,-167 1355.79,-167"/>
<polygon fill="black" stroke="black" points="1355.79,-163.5 1345.79,-167 1355.79,-170.5 1355.79,-163.5"/>
</g>
<!-- CookiesComponent -->
<g id="node5" class="node">
<title>CookiesComponent</title>
<polygon fill="#ffffb3" stroke="black" points="1873.72,-122 1746.28,-122 1746.28,-86 1873.72,-86 1873.72,-122"/>
<text text-anchor="middle" x="1810" y="-99.8" font-family="Times,serif" font-size="14.00">CookiesComponent</text>
</g>
<!-- CookiesComponent&#45;&gt;AppModule -->
<g id="edge5" class="edge">
<title>CookiesComponent&#45;&gt;AppModule</title>
<path fill="none" stroke="black" d="M1810,-122.02C1810,-139.37 1810,-163 1810,-163 1810,-163 1355.84,-163 1355.84,-163"/>
<polygon fill="black" stroke="black" points="1355.84,-159.5 1345.84,-163 1355.84,-166.5 1355.84,-159.5"/>
</g>
<!-- FooterComponent -->
<g id="node6" class="node">
<title>FooterComponent</title>
<polygon fill="#ffffb3" stroke="black" points="1727.88,-122 1610.12,-122 1610.12,-86 1727.88,-86 1727.88,-122"/>
<text text-anchor="middle" x="1669" y="-99.8" font-family="Times,serif" font-size="14.00">FooterComponent</text>
</g>
<!-- FooterComponent&#45;&gt;AppModule -->
<g id="edge6" class="edge">
<title>FooterComponent&#45;&gt;AppModule</title>
<path fill="none" stroke="black" d="M1669,-122.01C1669,-138.05 1669,-159 1669,-159 1669,-159 1355.87,-159 1355.87,-159"/>
<polygon fill="black" stroke="black" points="1355.87,-155.5 1345.87,-159 1355.87,-162.5 1355.87,-155.5"/>
</g>
<!-- ForoComponent -->
<g id="node7" class="node">
<title>ForoComponent</title>
<polygon fill="#ffffb3" stroke="black" points="1591.78,-122 1484.22,-122 1484.22,-86 1591.78,-86 1591.78,-122"/>
<text text-anchor="middle" x="1538" y="-99.8" font-family="Times,serif" font-size="14.00">ForoComponent</text>
</g>
<!-- ForoComponent&#45;&gt;AppModule -->
<g id="edge7" class="edge">
<title>ForoComponent&#45;&gt;AppModule</title>
<path fill="none" stroke="black" d="M1538,-122.12C1538,-136.78 1538,-155 1538,-155 1538,-155 1355.83,-155 1355.83,-155"/>
<polygon fill="black" stroke="black" points="1355.83,-151.5 1345.83,-155 1355.83,-158.5 1355.83,-151.5"/>
</g>
<!-- LocalizacionesComponent -->
<g id="node8" class="node">
<title>LocalizacionesComponent</title>
<polygon fill="#ffffb3" stroke="black" points="1465.79,-122 1300.21,-122 1300.21,-86 1465.79,-86 1465.79,-122"/>
<text text-anchor="middle" x="1383" y="-99.8" font-family="Times,serif" font-size="14.00">LocalizacionesComponent</text>
</g>
<!-- LocalizacionesComponent&#45;&gt;AppModule -->
<g id="edge8" class="edge">
<title>LocalizacionesComponent&#45;&gt;AppModule</title>
<path fill="none" stroke="black" d="M1323.09,-122.11C1323.09,-122.11 1323.09,-140.99 1323.09,-140.99"/>
<polygon fill="black" stroke="black" points="1319.59,-140.99 1323.09,-150.99 1326.59,-140.99 1319.59,-140.99"/>
</g>
<!-- LoginComponent -->
<g id="node9" class="node">
<title>LoginComponent</title>
<polygon fill="#ffffb3" stroke="black" points="1282.28,-122 1167.72,-122 1167.72,-86 1282.28,-86 1282.28,-122"/>
<text text-anchor="middle" x="1225" y="-99.8" font-family="Times,serif" font-size="14.00">LoginComponent</text>
</g>
<!-- LoginComponent&#45;&gt;AppModule -->
<g id="edge9" class="edge">
<title>LoginComponent&#45;&gt;AppModule</title>
<path fill="none" stroke="black" d="M1272.28,-122.11C1272.28,-122.11 1272.28,-140.99 1272.28,-140.99"/>
<polygon fill="black" stroke="black" points="1268.78,-140.99 1272.28,-150.99 1275.78,-140.99 1268.78,-140.99"/>
</g>
<!-- MenuComponent -->
<g id="node10" class="node">
<title>MenuComponent</title>
<polygon fill="#ffffb3" stroke="black" points="1149.99,-122 1036.01,-122 1036.01,-86 1149.99,-86 1149.99,-122"/>
<text text-anchor="middle" x="1093" y="-99.8" font-family="Times,serif" font-size="14.00">MenuComponent</text>
</g>
<!-- MenuComponent&#45;&gt;AppModule -->
<g id="edge10" class="edge">
<title>MenuComponent&#45;&gt;AppModule</title>
<path fill="none" stroke="black" d="M1093,-122.12C1093,-136.78 1093,-155 1093,-155 1093,-155 1252.31,-155 1252.31,-155"/>
<polygon fill="black" stroke="black" points="1252.31,-158.5 1262.31,-155 1252.31,-151.5 1252.31,-158.5"/>
</g>
<!-- NavbarComponent -->
<g id="node11" class="node">
<title>NavbarComponent</title>
<polygon fill="#ffffb3" stroke="black" points="1018.03,-122 895.97,-122 895.97,-86 1018.03,-86 1018.03,-122"/>
<text text-anchor="middle" x="957" y="-99.8" font-family="Times,serif" font-size="14.00">NavbarComponent</text>
</g>
<!-- NavbarComponent&#45;&gt;AppModule -->
<g id="edge11" class="edge">
<title>NavbarComponent&#45;&gt;AppModule</title>
<path fill="none" stroke="black" d="M957,-122.01C957,-138.05 957,-159 957,-159 957,-159 1252.14,-159 1252.14,-159"/>
<polygon fill="black" stroke="black" points="1252.14,-162.5 1262.14,-159 1252.14,-155.5 1252.14,-162.5"/>
</g>
<!-- NoImagePipePipe -->
<g id="node12" class="node">
<title>NoImagePipePipe</title>
<polygon fill="#ffffb3" stroke="black" points="877.86,-122 760.14,-122 760.14,-86 877.86,-86 877.86,-122"/>
<text text-anchor="middle" x="819" y="-99.8" font-family="Times,serif" font-size="14.00">NoImagePipePipe</text>
</g>
<!-- NoImagePipePipe&#45;&gt;AppModule -->
<g id="edge12" class="edge">
<title>NoImagePipePipe&#45;&gt;AppModule</title>
<path fill="none" stroke="black" d="M819,-122.02C819,-139.37 819,-163 819,-163 819,-163 1252.23,-163 1252.23,-163"/>
<polygon fill="black" stroke="black" points="1252.23,-166.5 1262.23,-163 1252.23,-159.5 1252.23,-166.5"/>
</g>
<!-- NuevoTemaComponent -->
<g id="node13" class="node">
<title>NuevoTemaComponent</title>
<polygon fill="#ffffb3" stroke="black" points="742.03,-122 591.97,-122 591.97,-86 742.03,-86 742.03,-122"/>
<text text-anchor="middle" x="667" y="-99.8" font-family="Times,serif" font-size="14.00">NuevoTemaComponent</text>
</g>
<!-- NuevoTemaComponent&#45;&gt;AppModule -->
<g id="edge13" class="edge">
<title>NuevoTemaComponent&#45;&gt;AppModule</title>
<path fill="none" stroke="black" d="M667,-122.22C667,-140.83 667,-167 667,-167 667,-167 1252.2,-167 1252.2,-167"/>
<polygon fill="black" stroke="black" points="1252.2,-170.5 1262.2,-167 1252.2,-163.5 1252.2,-170.5"/>
</g>
<!-- PerfilComponent -->
<g id="node14" class="node">
<title>PerfilComponent</title>
<polygon fill="#ffffb3" stroke="black" points="574.43,-122 461.57,-122 461.57,-86 574.43,-86 574.43,-122"/>
<text text-anchor="middle" x="518" y="-99.8" font-family="Times,serif" font-size="14.00">PerfilComponent</text>
</g>
<!-- PerfilComponent&#45;&gt;AppModule -->
<g id="edge14" class="edge">
<title>PerfilComponent&#45;&gt;AppModule</title>
<path fill="none" stroke="black" d="M518,-122.31C518,-142.15 518,-171 518,-171 518,-171 1252.3,-171 1252.3,-171"/>
<polygon fill="black" stroke="black" points="1252.3,-174.5 1262.3,-171 1252.3,-167.5 1252.3,-174.5"/>
</g>
<!-- RegistroComponent -->
<g id="node15" class="node">
<title>RegistroComponent</title>
<polygon fill="#ffffb3" stroke="black" points="443.27,-122 314.73,-122 314.73,-86 443.27,-86 443.27,-122"/>
<text text-anchor="middle" x="379" y="-99.8" font-family="Times,serif" font-size="14.00">RegistroComponent</text>
</g>
<!-- RegistroComponent&#45;&gt;AppModule -->
<g id="edge15" class="edge">
<title>RegistroComponent&#45;&gt;AppModule</title>
<path fill="none" stroke="black" d="M379,-122.28C379,-143.32 379,-175 379,-175 379,-175 1252.15,-175 1252.15,-175"/>
<polygon fill="black" stroke="black" points="1252.15,-178.5 1262.15,-175 1252.15,-171.5 1252.15,-178.5"/>
</g>
<!-- RutasComponent -->
<g id="node16" class="node">
<title>RutasComponent</title>
<polygon fill="#ffffb3" stroke="black" points="296.72,-122 183.28,-122 183.28,-86 296.72,-86 296.72,-122"/>
<text text-anchor="middle" x="240" y="-99.8" font-family="Times,serif" font-size="14.00">RutasComponent</text>
</g>
<!-- RutasComponent&#45;&gt;AppModule -->
<g id="edge16" class="edge">
<title>RutasComponent&#45;&gt;AppModule</title>
<path fill="none" stroke="black" d="M240,-122.16C240,-144.35 240,-179 240,-179 240,-179 1252.29,-179 1252.29,-179"/>
<polygon fill="black" stroke="black" points="1252.29,-182.5 1262.29,-179 1252.29,-175.5 1252.29,-182.5"/>
</g>
<!-- RutasListaComponent -->
<g id="node17" class="node">
<title>RutasListaComponent</title>
<polygon fill="#ffffb3" stroke="black" points="165.71,-122 24.29,-122 24.29,-86 165.71,-86 165.71,-122"/>
<text text-anchor="middle" x="95" y="-99.8" font-family="Times,serif" font-size="14.00">RutasListaComponent</text>
</g>
<!-- RutasListaComponent&#45;&gt;AppModule -->
<g id="edge17" class="edge">
<title>RutasListaComponent&#45;&gt;AppModule</title>
<path fill="none" stroke="black" d="M95,-122.32C95,-145.66 95,-183 95,-183 95,-183 1252.03,-183 1252.03,-183"/>
<polygon fill="black" stroke="black" points="1252.03,-186.5 1262.03,-183 1252.03,-179.5 1252.03,-186.5"/>
</g>
<!-- AppComponent  -->
<g id="node20" class="node">
<title>AppComponent </title>
<polygon fill="#80b1d3" stroke="black" points="1358.44,-252 1249.56,-252 1249.56,-216 1358.44,-216 1358.44,-252"/>
<text text-anchor="middle" x="1304" y="-229.8" font-family="Times,serif" font-size="14.00">AppComponent </text>
</g>
<!-- AppModule&#45;&gt;AppComponent  -->
<g id="edge19" class="edge">
<title>AppModule&#45;&gt;AppComponent </title>
<path fill="none" stroke="black" stroke-dasharray="1,5" d="M1304,-187.11C1304,-187.11 1304,-205.99 1304,-205.99"/>
<polygon fill="black" stroke="black" points="1300.5,-205.99 1304,-215.99 1307.5,-205.99 1300.5,-205.99"/>
</g>
<!-- AppRoutingModule -->
<g id="node19" class="node">
<title>AppRoutingModule</title>
<polygon fill="#8dd3c7" stroke="black" points="2697.27,-122 2694.27,-126 2673.27,-126 2670.27,-122 2568.73,-122 2568.73,-86 2697.27,-86 2697.27,-122"/>
<text text-anchor="middle" x="2633" y="-99.8" font-family="Times,serif" font-size="14.00">AppRoutingModule</text>
</g>
<!-- AppRoutingModule&#45;&gt;AppModule -->
<g id="edge18" class="edge">
<title>AppRoutingModule&#45;&gt;AppModule</title>
<path fill="none" stroke="black" d="M2633,-122.32C2633,-145.66 2633,-183 2633,-183 2633,-183 1355.97,-183 1355.97,-183"/>
<polygon fill="black" stroke="black" points="1355.97,-179.5 1345.97,-183 1355.97,-186.5 1355.97,-179.5"/>
</g>
</g>
</svg>
